<?xml version="1.0" encoding="UTF-8"?>
<!DOCTYPE svg PUBLIC "-//W3C//DTD SVG 1.1//EN" "http://www.w3.org/Graphics/SVG/1.1/DTD/svg11.dtd">
<svg xmlns="http://www.w3.org/2000/svg" version="1.1" width="256px" height="256px" style="shape-rendering:geometricPrecision; text-rendering:geometricPrecision; image-rendering:optimizeQuality; fill-rule:evenodd; clip-rule:evenodd" xmlns:xlink="http://www.w3.org/1999/xlink">
<g><path style="opacity:0.956" fill="#008aff" d="M 83.5,9.5 C 90.6921,8.94478 97.6921,9.77811 104.5,12C 106.333,13.8333 108.167,15.6667 110,17.5C 135.254,51.0231 160.254,84.6897 185,118.5C 185.667,123.5 185.667,128.5 185,133.5C 184.439,135.725 183.439,137.725 182,139.5C 159,168.5 136,197.5 113,226.5C 104.588,237.328 93.7545,240.495 80.5,236C 73.554,232.034 70.554,226.034 71.5,218C 71.4716,214.41 71.9716,210.91 73,207.5C 94.3094,180.023 115.809,152.69 137.5,125.5C 116.243,96.6544 94.7433,67.9878 73,39.5C 71,32.5 71,25.5 73,18.5C 75.5054,14.1888 79.0054,11.1888 83.5,9.5 Z"/></g>
</svg>
