<?xml version="1.0" encoding="UTF-8"?>
<!DOCTYPE svg PUBLIC "-//W3C//DTD SVG 1.1//EN" "http://www.w3.org/Graphics/SVG/1.1/DTD/svg11.dtd">
<svg xmlns="http://www.w3.org/2000/svg" version="1.1" width="256px" height="256px" style="shape-rendering:geometricPrecision; text-rendering:geometricPrecision; image-rendering:optimizeQuality; fill-rule:evenodd; clip-rule:evenodd" xmlns:xlink="http://www.w3.org/1999/xlink">
<g><path style="opacity:0.981" fill="#003366" d="M 78.5,-0.5 C 86.8333,-0.5 95.1667,-0.5 103.5,-0.5C 109.947,2.26205 115.28,6.59538 119.5,12.5C 119.285,14.1788 119.952,15.1788 121.5,15.5C 122.167,15.5 122.5,15.8333 122.5,16.5C 122.285,18.1788 122.952,19.1788 124.5,19.5C 125.167,19.5 125.5,19.8333 125.5,20.5C 125.285,22.1788 125.952,23.1788 127.5,23.5C 128.5,23.8333 129.167,24.5 129.5,25.5C 129.285,27.1788 129.952,28.1788 131.5,28.5C 131.285,30.1788 131.952,31.1788 133.5,31.5C 134.167,31.5 134.5,31.8333 134.5,32.5C 134.285,34.1788 134.952,35.1788 136.5,35.5C 137.5,35.8333 138.167,36.5 138.5,37.5C 138.285,39.1788 138.952,40.1788 140.5,40.5C 141.167,40.5 141.5,40.8333 141.5,41.5C 141.285,43.1788 141.952,44.1788 143.5,44.5C 143.285,46.1788 143.952,47.1788 145.5,47.5C 146.167,47.5 146.5,47.8333 146.5,48.5C 146.285,50.1788 146.952,51.1788 148.5,51.5C 149.5,51.8333 150.167,52.5 150.5,53.5C 150.285,55.1788 150.952,56.1788 152.5,56.5C 153.167,56.5 153.5,56.8333 153.5,57.5C 153.285,59.1788 153.952,60.1788 155.5,60.5C 156.167,60.5 156.5,60.8333 156.5,61.5C 156.285,63.1788 156.952,64.1788 158.5,64.5C 158.285,66.1788 158.952,67.1788 160.5,67.5C 161.5,67.8333 162.167,68.5 162.5,69.5C 162.285,71.1788 162.952,72.1788 164.5,72.5C 165.167,72.5 165.5,72.8333 165.5,73.5C 165.285,75.1788 165.952,76.1788 167.5,76.5C 168.167,76.5 168.5,76.8333 168.5,77.5C 168.285,79.1788 168.952,80.1788 170.5,80.5C 170.285,82.1788 170.952,83.1788 172.5,83.5C 173.5,83.8333 174.167,84.5 174.5,85.5C 174.285,87.1788 174.952,88.1788 176.5,88.5C 177.167,88.5 177.5,88.8333 177.5,89.5C 177.285,91.1788 177.952,92.1788 179.5,92.5C 180.167,92.5 180.5,92.8333 180.5,93.5C 180.285,95.1788 180.952,96.1788 182.5,96.5C 182.285,98.1788 182.952,99.1788 184.5,99.5C 185.5,99.8333 186.167,100.5 186.5,101.5C 186.285,103.179 186.952,104.179 188.5,104.5C 189.833,105.167 190.833,106.167 191.5,107.5C 191.285,109.179 191.952,110.179 193.5,110.5C 194.833,120.833 194.833,131.167 193.5,141.5C 191.952,141.821 191.285,142.821 191.5,144.5C 190.833,145.833 189.833,146.833 188.5,147.5C 186.952,147.821 186.285,148.821 186.5,150.5C 184.952,150.821 184.285,151.821 184.5,153.5C 184.167,154.5 183.5,155.167 182.5,155.5C 180.952,155.821 180.285,156.821 180.5,158.5C 180.167,159.5 179.5,160.167 178.5,160.5C 176.952,160.821 176.285,161.821 176.5,163.5C 176.5,164.167 176.167,164.5 175.5,164.5C 173.952,164.821 173.285,165.821 173.5,167.5C 173.167,168.5 172.5,169.167 171.5,169.5C 169.952,169.821 169.285,170.821 169.5,172.5C 168.833,173.833 167.833,174.833 166.5,175.5C 164.952,175.821 164.285,176.821 164.5,178.5C 164.167,179.5 163.5,180.167 162.5,180.5C 160.952,180.821 160.285,181.821 160.5,183.5C 160.5,184.167 160.167,184.5 159.5,184.5C 157.952,184.821 157.285,185.821 157.5,187.5C 157.167,188.5 156.5,189.167 155.5,189.5C 153.952,189.821 153.285,190.821 153.5,192.5C 153.167,193.5 152.5,194.167 151.5,194.5C 149.952,194.821 149.285,195.821 149.5,197.5C 149.167,198.5 148.5,199.167 147.5,199.5C 145.952,199.821 145.285,200.821 145.5,202.5C 145.167,203.5 144.5,204.167 143.5,204.5C 141.952,204.821 141.285,205.821 141.5,207.5C 141.5,208.167 141.167,208.5 140.5,208.5C 138.952,208.821 138.285,209.821 138.5,211.5C 138.167,212.5 137.5,213.167 136.5,213.5C 134.952,213.821 134.285,214.821 134.5,216.5C 133.833,217.833 132.833,218.833 131.5,219.5C 129.952,219.821 129.285,220.821 129.5,222.5C 129.167,223.5 128.5,224.167 127.5,224.5C 125.952,224.821 125.285,225.821 125.5,227.5C 125.5,228.167 125.167,228.5 124.5,228.5C 122.952,228.821 122.285,229.821 122.5,231.5C 117.776,237.227 112.442,242.227 106.5,246.5C 106.083,245.876 105.416,245.543 104.5,245.5C 103.287,245.747 102.62,246.414 102.5,247.5C 94.4931,247.666 86.4931,247.5 78.5,247C 73.1326,244.801 68.7993,241.301 65.5,236.5C 65.7148,234.821 65.0481,233.821 63.5,233.5C 62.1667,223.167 62.1667,212.833 63.5,202.5C 65.0481,202.179 65.7148,201.179 65.5,199.5C 67.0481,199.179 67.7148,198.179 67.5,196.5C 67.8333,195.5 68.5,194.833 69.5,194.5C 71.0481,194.179 71.7148,193.179 71.5,191.5C 71.8333,190.5 72.5,189.833 73.5,189.5C 75.0481,189.179 75.7148,188.179 75.5,186.5C 75.8333,185.5 76.5,184.833 77.5,184.5C 79.0481,184.179 79.7148,183.179 79.5,181.5C 79.8333,180.5 80.5,179.833 81.5,179.5C 83.0481,179.179 83.7148,178.179 83.5,176.5C 83.8333,175.5 84.5,174.833 85.5,174.5C 87.0481,174.179 87.7148,173.179 87.5,171.5C 87.8333,170.5 88.5,169.833 89.5,169.5C 91.0481,169.179 91.7148,168.179 91.5,166.5C 91.8333,165.5 92.5,164.833 93.5,164.5C 95.0481,164.179 95.7148,163.179 95.5,161.5C 95.8333,160.5 96.5,159.833 97.5,159.5C 99.0481,159.179 99.7148,158.179 99.5,156.5C 99.8333,155.5 100.5,154.833 101.5,154.5C 103.048,154.179 103.715,153.179 103.5,151.5C 103.833,150.5 104.5,149.833 105.5,149.5C 107.048,149.179 107.715,148.179 107.5,146.5C 107.833,145.5 108.5,144.833 109.5,144.5C 111.048,144.179 111.715,143.179 111.5,141.5C 111.833,140.5 112.5,139.833 113.5,139.5C 115.048,139.179 115.715,138.179 115.5,136.5C 115.833,135.5 116.5,134.833 117.5,134.5C 119.048,134.179 119.715,133.179 119.5,131.5C 119.833,130.5 120.5,129.833 121.5,129.5C 123.048,129.179 123.715,128.179 123.5,126.5C 123.5,125.833 123.5,125.167 123.5,124.5C 123.715,122.821 123.048,121.821 121.5,121.5C 120.833,121.5 120.5,121.167 120.5,120.5C 120.715,118.821 120.048,117.821 118.5,117.5C 117.833,117.5 117.5,117.167 117.5,116.5C 117.715,114.821 117.048,113.821 115.5,113.5C 114.833,113.5 114.5,113.167 114.5,112.5C 114.715,110.821 114.048,109.821 112.5,109.5C 111.833,109.5 111.5,109.167 111.5,108.5C 111.715,106.821 111.048,105.821 109.5,105.5C 108.833,105.5 108.5,105.167 108.5,104.5C 108.715,102.821 108.048,101.821 106.5,101.5C 105.833,101.5 105.5,101.167 105.5,100.5C 105.715,98.8212 105.048,97.8212 103.5,97.5C 102.833,97.5 102.5,97.1667 102.5,96.5C 102.715,94.8212 102.048,93.8212 100.5,93.5C 99.8333,93.5 99.5,93.1667 99.5,92.5C 99.7148,90.8212 99.0481,89.8212 97.5,89.5C 96.8333,89.5 96.5,89.1667 96.5,88.5C 96.7148,86.8212 96.0481,85.8212 94.5,85.5C 93.8333,85.5 93.5,85.1667 93.5,84.5C 93.7148,82.8212 93.0481,81.8212 91.5,81.5C 90.8333,81.5 90.5,81.1667 90.5,80.5C 90.7148,78.8212 90.0481,77.8212 88.5,77.5C 87.8333,77.5 87.5,77.1667 87.5,76.5C 87.7148,74.8212 87.0481,73.8212 85.5,73.5C 84.8333,73.5 84.5,73.1667 84.5,72.5C 84.7148,70.8212 84.0481,69.8212 82.5,69.5C 81.8333,69.5 81.5,69.1667 81.5,68.5C 81.7148,66.8212 81.0481,65.8212 79.5,65.5C 78.8333,65.5 78.5,65.1667 78.5,64.5C 78.7148,62.8212 78.0481,61.8212 76.5,61.5C 75.8333,61.5 75.5,61.1667 75.5,60.5C 75.7148,58.8212 75.0481,57.8212 73.5,57.5C 72.8333,57.5 72.5,57.1667 72.5,56.5C 72.7148,54.8212 72.0481,53.8212 70.5,53.5C 69.8333,53.5 69.5,53.1667 69.5,52.5C 69.7148,50.8212 69.0481,49.8212 67.5,49.5C 66.5,49.1667 65.8333,48.5 65.5,47.5C 65.7148,45.8212 65.0481,44.8212 63.5,44.5C 62.1667,34.1667 62.1667,23.8333 63.5,13.5C 65.0481,13.1788 65.7148,12.1788 65.5,10.5C 68.9769,5.6792 73.3102,2.01254 78.5,-0.5 Z"/></g>
<g><path style="opacity:0.253" fill="#003665" d="M 65.5,10.5 C 65.7148,12.1788 65.0481,13.1788 63.5,13.5C 63.9321,12.2905 64.5987,11.2905 65.5,10.5 Z"/></g>
<g><path style="opacity:0.253" fill="#003665" d="M 119.5,12.5 C 120.401,13.2905 121.068,14.2905 121.5,15.5C 119.952,15.1788 119.285,14.1788 119.5,12.5 Z"/></g>
<g><path style="opacity:0.212" fill="#003562" d="M 63.5,13.5 C 62.1667,23.8333 62.1667,34.1667 63.5,44.5C 62.7321,43.7375 62.2321,42.7375 62,41.5C 61.3333,33.1667 61.3333,24.8333 62,16.5C 62.2321,15.2625 62.7321,14.2625 63.5,13.5 Z"/></g>
<g><path style="opacity:0.253" fill="#003665" d="M 122.5,16.5 C 123.401,17.2905 124.068,18.2905 124.5,19.5C 122.952,19.1788 122.285,18.1788 122.5,16.5 Z"/></g>
<g><path style="opacity:0.253" fill="#003665" d="M 125.5,20.5 C 126.401,21.2905 127.068,22.2905 127.5,23.5C 125.952,23.1788 125.285,22.1788 125.5,20.5 Z"/></g>
<g><path style="opacity:0.253" fill="#003665" d="M 129.5,25.5 C 130.401,26.2905 131.068,27.2905 131.5,28.5C 129.952,28.1788 129.285,27.1788 129.5,25.5 Z"/></g>
<g><path style="opacity:0.253" fill="#003665" d="M 131.5,28.5 C 132.401,29.2905 133.068,30.2905 133.5,31.5C 131.952,31.1788 131.285,30.1788 131.5,28.5 Z"/></g>
<g><path style="opacity:0.253" fill="#003665" d="M 134.5,32.5 C 135.401,33.2905 136.068,34.2905 136.5,35.5C 134.952,35.1788 134.285,34.1788 134.5,32.5 Z"/></g>
<g><path style="opacity:0.253" fill="#003665" d="M 138.5,37.5 C 139.401,38.2905 140.068,39.2905 140.5,40.5C 138.952,40.1788 138.285,39.1788 138.5,37.5 Z"/></g>
<g><path style="opacity:0.253" fill="#003665" d="M 141.5,41.5 C 142.401,42.2905 143.068,43.2905 143.5,44.5C 141.952,44.1788 141.285,43.1788 141.5,41.5 Z"/></g>
<g><path style="opacity:0.253" fill="#003665" d="M 63.5,44.5 C 65.0481,44.8212 65.7148,45.8212 65.5,47.5C 64.5987,46.7095 63.9321,45.7095 63.5,44.5 Z"/></g>
<g><path style="opacity:0.253" fill="#003665" d="M 143.5,44.5 C 144.401,45.2905 145.068,46.2905 145.5,47.5C 143.952,47.1788 143.285,46.1788 143.5,44.5 Z"/></g>
<g><path style="opacity:0.253" fill="#003665" d="M 67.5,49.5 C 69.0481,49.8212 69.7148,50.8212 69.5,52.5C 68.5987,51.7095 67.9321,50.7095 67.5,49.5 Z"/></g>
<g><path style="opacity:0.253" fill="#003665" d="M 146.5,48.5 C 147.401,49.2905 148.068,50.2905 148.5,51.5C 146.952,51.1788 146.285,50.1788 146.5,48.5 Z"/></g>
<g><path style="opacity:0.253" fill="#003665" d="M 70.5,53.5 C 72.0481,53.8212 72.7148,54.8212 72.5,56.5C 71.5987,55.7095 70.9321,54.7095 70.5,53.5 Z"/></g>
<g><path style="opacity:0.253" fill="#003665" d="M 150.5,53.5 C 151.401,54.2905 152.068,55.2905 152.5,56.5C 150.952,56.1788 150.285,55.1788 150.5,53.5 Z"/></g>
<g><path style="opacity:0.253" fill="#003665" d="M 73.5,57.5 C 75.0481,57.8212 75.7148,58.8212 75.5,60.5C 74.5987,59.7095 73.9321,58.7095 73.5,57.5 Z"/></g>
<g><path style="opacity:0.253" fill="#003665" d="M 153.5,57.5 C 154.401,58.2905 155.068,59.2905 155.5,60.5C 153.952,60.1788 153.285,59.1788 153.5,57.5 Z"/></g>
<g><path style="opacity:0.253" fill="#003665" d="M 76.5,61.5 C 78.0481,61.8212 78.7148,62.8212 78.5,64.5C 77.5987,63.7095 76.9321,62.7095 76.5,61.5 Z"/></g>
<g><path style="opacity:0.253" fill="#003665" d="M 156.5,61.5 C 157.401,62.2905 158.068,63.2905 158.5,64.5C 156.952,64.1788 156.285,63.1788 156.5,61.5 Z"/></g>
<g><path style="opacity:0.253" fill="#003665" d="M 79.5,65.5 C 81.0481,65.8212 81.7148,66.8212 81.5,68.5C 80.5987,67.7095 79.9321,66.7095 79.5,65.5 Z"/></g>
<g><path style="opacity:0.253" fill="#003665" d="M 158.5,64.5 C 159.401,65.2905 160.068,66.2905 160.5,67.5C 158.952,67.1788 158.285,66.1788 158.5,64.5 Z"/></g>
<g><path style="opacity:0.253" fill="#003665" d="M 82.5,69.5 C 84.0481,69.8212 84.7148,70.8212 84.5,72.5C 83.5987,71.7095 82.9321,70.7095 82.5,69.5 Z"/></g>
<g><path style="opacity:0.253" fill="#003665" d="M 162.5,69.5 C 163.401,70.2905 164.068,71.2905 164.5,72.5C 162.952,72.1788 162.285,71.1788 162.5,69.5 Z"/></g>
<g><path style="opacity:0.253" fill="#003665" d="M 85.5,73.5 C 87.0481,73.8212 87.7148,74.8212 87.5,76.5C 86.5987,75.7095 85.9321,74.7095 85.5,73.5 Z"/></g>
<g><path style="opacity:0.253" fill="#003665" d="M 165.5,73.5 C 166.401,74.2905 167.068,75.2905 167.5,76.5C 165.952,76.1788 165.285,75.1788 165.5,73.5 Z"/></g>
<g><path style="opacity:0.253" fill="#003665" d="M 88.5,77.5 C 90.0481,77.8212 90.7148,78.8212 90.5,80.5C 89.5987,79.7095 88.9321,78.7095 88.5,77.5 Z"/></g>
<g><path style="opacity:0.253" fill="#003665" d="M 168.5,77.5 C 169.401,78.2905 170.068,79.2905 170.5,80.5C 168.952,80.1788 168.285,79.1788 168.5,77.5 Z"/></g>
<g><path style="opacity:0.253" fill="#003665" d="M 91.5,81.5 C 93.0481,81.8212 93.7148,82.8212 93.5,84.5C 92.5987,83.7095 91.9321,82.7095 91.5,81.5 Z"/></g>
<g><path style="opacity:0.253" fill="#003665" d="M 170.5,80.5 C 171.401,81.2905 172.068,82.2905 172.5,83.5C 170.952,83.1788 170.285,82.1788 170.5,80.5 Z"/></g>
<g><path style="opacity:0.253" fill="#003665" d="M 94.5,85.5 C 96.0481,85.8212 96.7148,86.8212 96.5,88.5C 95.5987,87.7095 94.9321,86.7095 94.5,85.5 Z"/></g>
<g><path style="opacity:0.253" fill="#003665" d="M 174.5,85.5 C 175.401,86.2905 176.068,87.2905 176.5,88.5C 174.952,88.1788 174.285,87.1788 174.5,85.5 Z"/></g>
<g><path style="opacity:0.253" fill="#003665" d="M 97.5,89.5 C 99.0481,89.8212 99.7148,90.8212 99.5,92.5C 98.5987,91.7095 97.9321,90.7095 97.5,89.5 Z"/></g>
<g><path style="opacity:0.253" fill="#003665" d="M 177.5,89.5 C 178.401,90.2905 179.068,91.2905 179.5,92.5C 177.952,92.1788 177.285,91.1788 177.5,89.5 Z"/></g>
<g><path style="opacity:0.253" fill="#003665" d="M 100.5,93.5 C 102.048,93.8212 102.715,94.8212 102.5,96.5C 101.599,95.7095 100.932,94.7095 100.5,93.5 Z"/></g>
<g><path style="opacity:0.253" fill="#003665" d="M 180.5,93.5 C 181.401,94.2905 182.068,95.2905 182.5,96.5C 180.952,96.1788 180.285,95.1788 180.5,93.5 Z"/></g>
<g><path style="opacity:0.253" fill="#003665" d="M 103.5,97.5 C 105.048,97.8212 105.715,98.8212 105.5,100.5C 104.599,99.7095 103.932,98.7095 103.5,97.5 Z"/></g>
<g><path style="opacity:0.253" fill="#003665" d="M 182.5,96.5 C 183.401,97.2905 184.068,98.2905 184.5,99.5C 182.952,99.1788 182.285,98.1788 182.5,96.5 Z"/></g>
<g><path style="opacity:0.253" fill="#003665" d="M 106.5,101.5 C 108.048,101.821 108.715,102.821 108.5,104.5C 107.599,103.71 106.932,102.71 106.5,101.5 Z"/></g>
<g><path style="opacity:0.253" fill="#003665" d="M 186.5,101.5 C 187.401,102.29 188.068,103.29 188.5,104.5C 186.952,104.179 186.285,103.179 186.5,101.5 Z"/></g>
<g><path style="opacity:0.253" fill="#003665" d="M 109.5,105.5 C 111.048,105.821 111.715,106.821 111.5,108.5C 110.599,107.71 109.932,106.71 109.5,105.5 Z"/></g>
<g><path style="opacity:0.253" fill="#003665" d="M 191.5,107.5 C 192.401,108.29 193.068,109.29 193.5,110.5C 191.952,110.179 191.285,109.179 191.5,107.5 Z"/></g>
<g><path style="opacity:0.253" fill="#003665" d="M 112.5,109.5 C 114.048,109.821 114.715,110.821 114.5,112.5C 113.599,111.71 112.932,110.71 112.5,109.5 Z"/></g>
<g><path style="opacity:0.253" fill="#003665" d="M 115.5,113.5 C 117.048,113.821 117.715,114.821 117.5,116.5C 116.599,115.71 115.932,114.71 115.5,113.5 Z"/></g>
<g><path style="opacity:0.212" fill="#003562" d="M 193.5,110.5 C 194.268,111.263 194.768,112.263 195,113.5C 195.667,121.833 195.667,130.167 195,138.5C 194.768,139.737 194.268,140.737 193.5,141.5C 194.833,131.167 194.833,120.833 193.5,110.5 Z"/></g>
<g><path style="opacity:0.253" fill="#003665" d="M 118.5,117.5 C 120.048,117.821 120.715,118.821 120.5,120.5C 119.599,119.71 118.932,118.71 118.5,117.5 Z"/></g>
<g><path style="opacity:0.253" fill="#003665" d="M 121.5,121.5 C 123.048,121.821 123.715,122.821 123.5,124.5C 122.599,123.71 121.932,122.71 121.5,121.5 Z"/></g>
<g><path style="opacity:0.253" fill="#003665" d="M 123.5,126.5 C 123.715,128.179 123.048,129.179 121.5,129.5C 121.932,128.29 122.599,127.29 123.5,126.5 Z"/></g>
<g><path style="opacity:0.253" fill="#003665" d="M 119.5,131.5 C 119.715,133.179 119.048,134.179 117.5,134.5C 117.932,133.29 118.599,132.29 119.5,131.5 Z"/></g>
<g><path style="opacity:0.253" fill="#003665" d="M 115.5,136.5 C 115.715,138.179 115.048,139.179 113.5,139.5C 113.932,138.29 114.599,137.29 115.5,136.5 Z"/></g>
<g><path style="opacity:0.253" fill="#003665" d="M 193.5,141.5 C 193.068,142.71 192.401,143.71 191.5,144.5C 191.285,142.821 191.952,141.821 193.5,141.5 Z"/></g>
<g><path style="opacity:0.253" fill="#003665" d="M 111.5,141.5 C 111.715,143.179 111.048,144.179 109.5,144.5C 109.932,143.29 110.599,142.29 111.5,141.5 Z"/></g>
<g><path style="opacity:0.253" fill="#003665" d="M 107.5,146.5 C 107.715,148.179 107.048,149.179 105.5,149.5C 105.932,148.29 106.599,147.29 107.5,146.5 Z"/></g>
<g><path style="opacity:0.253" fill="#003665" d="M 188.5,147.5 C 188.068,148.71 187.401,149.71 186.5,150.5C 186.285,148.821 186.952,147.821 188.5,147.5 Z"/></g>
<g><path style="opacity:0.253" fill="#003665" d="M 186.5,150.5 C 186.068,151.71 185.401,152.71 184.5,153.5C 184.285,151.821 184.952,150.821 186.5,150.5 Z"/></g>
<g><path style="opacity:0.253" fill="#003665" d="M 103.5,151.5 C 103.715,153.179 103.048,154.179 101.5,154.5C 101.932,153.29 102.599,152.29 103.5,151.5 Z"/></g>
<g><path style="opacity:0.253" fill="#003665" d="M 182.5,155.5 C 182.068,156.71 181.401,157.71 180.5,158.5C 180.285,156.821 180.952,155.821 182.5,155.5 Z"/></g>
<g><path style="opacity:0.253" fill="#003665" d="M 99.5,156.5 C 99.7148,158.179 99.0481,159.179 97.5,159.5C 97.9321,158.29 98.5987,157.29 99.5,156.5 Z"/></g>
<g><path style="opacity:0.253" fill="#003665" d="M 178.5,160.5 C 178.068,161.71 177.401,162.71 176.5,163.5C 176.285,161.821 176.952,160.821 178.5,160.5 Z"/></g>
<g><path style="opacity:0.253" fill="#003665" d="M 95.5,161.5 C 95.7148,163.179 95.0481,164.179 93.5,164.5C 93.9321,163.29 94.5987,162.29 95.5,161.5 Z"/></g>
<g><path style="opacity:0.253" fill="#003665" d="M 175.5,164.5 C 175.068,165.71 174.401,166.71 173.5,167.5C 173.285,165.821 173.952,164.821 175.5,164.5 Z"/></g>
<g><path style="opacity:0.253" fill="#003665" d="M 91.5,166.5 C 91.7148,168.179 91.0481,169.179 89.5,169.5C 89.9321,168.29 90.5987,167.29 91.5,166.5 Z"/></g>
<g><path style="opacity:0.253" fill="#003665" d="M 171.5,169.5 C 171.068,170.71 170.401,171.71 169.5,172.5C 169.285,170.821 169.952,169.821 171.5,169.5 Z"/></g>
<g><path style="opacity:0.253" fill="#003665" d="M 87.5,171.5 C 87.7148,173.179 87.0481,174.179 85.5,174.5C 85.9321,173.29 86.5987,172.29 87.5,171.5 Z"/></g>
<g><path style="opacity:0.253" fill="#003665" d="M 166.5,175.5 C 166.068,176.71 165.401,177.71 164.5,178.5C 164.285,176.821 164.952,175.821 166.5,175.5 Z"/></g>
<g><path style="opacity:0.253" fill="#003665" d="M 83.5,176.5 C 83.7148,178.179 83.0481,179.179 81.5,179.5C 81.9321,178.29 82.5987,177.29 83.5,176.5 Z"/></g>
<g><path style="opacity:0.253" fill="#003665" d="M 162.5,180.5 C 162.068,181.71 161.401,182.71 160.5,183.5C 160.285,181.821 160.952,180.821 162.5,180.5 Z"/></g>
<g><path style="opacity:0.253" fill="#003665" d="M 79.5,181.5 C 79.7148,183.179 79.0481,184.179 77.5,184.5C 77.9321,183.29 78.5987,182.29 79.5,181.5 Z"/></g>
<g><path style="opacity:0.253" fill="#003665" d="M 159.5,184.5 C 159.068,185.71 158.401,186.71 157.5,187.5C 157.285,185.821 157.952,184.821 159.5,184.5 Z"/></g>
<g><path style="opacity:0.253" fill="#003665" d="M 75.5,186.5 C 75.7148,188.179 75.0481,189.179 73.5,189.5C 73.9321,188.29 74.5987,187.29 75.5,186.5 Z"/></g>
<g><path style="opacity:0.253" fill="#003665" d="M 155.5,189.5 C 155.068,190.71 154.401,191.71 153.5,192.5C 153.285,190.821 153.952,189.821 155.5,189.5 Z"/></g>
<g><path style="opacity:0.253" fill="#003665" d="M 71.5,191.5 C 71.7148,193.179 71.0481,194.179 69.5,194.5C 69.9321,193.29 70.5987,192.29 71.5,191.5 Z"/></g>
<g><path style="opacity:0.253" fill="#003665" d="M 151.5,194.5 C 151.068,195.71 150.401,196.71 149.5,197.5C 149.285,195.821 149.952,194.821 151.5,194.5 Z"/></g>
<g><path style="opacity:0.253" fill="#003665" d="M 67.5,196.5 C 67.7148,198.179 67.0481,199.179 65.5,199.5C 65.9321,198.29 66.5987,197.29 67.5,196.5 Z"/></g>
<g><path style="opacity:0.253" fill="#003665" d="M 147.5,199.5 C 147.068,200.71 146.401,201.71 145.5,202.5C 145.285,200.821 145.952,199.821 147.5,199.5 Z"/></g>
<g><path style="opacity:0.253" fill="#003665" d="M 65.5,199.5 C 65.7148,201.179 65.0481,202.179 63.5,202.5C 63.9321,201.29 64.5987,200.29 65.5,199.5 Z"/></g>
<g><path style="opacity:0.253" fill="#003665" d="M 143.5,204.5 C 143.068,205.71 142.401,206.71 141.5,207.5C 141.285,205.821 141.952,204.821 143.5,204.5 Z"/></g>
<g><path style="opacity:0.212" fill="#003562" d="M 63.5,202.5 C 62.1667,212.833 62.1667,223.167 63.5,233.5C 62.7321,232.737 62.2321,231.737 62,230.5C 61.3333,222.167 61.3333,213.833 62,205.5C 62.2321,204.263 62.7321,203.263 63.5,202.5 Z"/></g>
<g><path style="opacity:0.253" fill="#003665" d="M 140.5,208.5 C 140.068,209.71 139.401,210.71 138.5,211.5C 138.285,209.821 138.952,208.821 140.5,208.5 Z"/></g>
<g><path style="opacity:0.253" fill="#003665" d="M 136.5,213.5 C 136.068,214.71 135.401,215.71 134.5,216.5C 134.285,214.821 134.952,213.821 136.5,213.5 Z"/></g>
<g><path style="opacity:0.253" fill="#003665" d="M 131.5,219.5 C 131.068,220.71 130.401,221.71 129.5,222.5C 129.285,220.821 129.952,219.821 131.5,219.5 Z"/></g>
<g><path style="opacity:0.253" fill="#003665" d="M 127.5,224.5 C 127.068,225.71 126.401,226.71 125.5,227.5C 125.285,225.821 125.952,224.821 127.5,224.5 Z"/></g>
<g><path style="opacity:0.253" fill="#003665" d="M 124.5,228.5 C 124.068,229.71 123.401,230.71 122.5,231.5C 122.285,229.821 122.952,228.821 124.5,228.5 Z"/></g>
<g><path style="opacity:0.253" fill="#003665" d="M 63.5,233.5 C 65.0481,233.821 65.7148,234.821 65.5,236.5C 64.5987,235.71 63.9321,234.71 63.5,233.5 Z"/></g>
<g><path style="opacity:0.246" fill="#003563" d="M 106.5,246.5 C 105.041,246.433 103.708,246.766 102.5,247.5C 102.62,246.414 103.287,245.747 104.5,245.5C 105.416,245.543 106.083,245.876 106.5,246.5 Z"/></g>
</svg>
